<svg width="14" height="15" viewBox="0 0 14 15" fill="none" xmlns="http://www.w3.org/2000/svg">
<path d="M3.125 14.5V5.15625H0.21875V14.5H3.125ZM1.65625 3.90625C2.59375 3.90625 3.34375 3.125 3.34375 2.1875C3.34375 1.28125 2.59375 0.53125 1.65625 0.53125C0.75 0.53125 0 1.28125 0 2.1875C0 3.125 0.75 3.90625 1.65625 3.90625ZM13.9688 14.5H14V9.375C14 6.875 13.4375 4.9375 10.5 4.9375C9.09375 4.9375 8.15625 5.71875 7.75 6.4375H7.71875V5.15625H4.9375V14.5H7.84375V9.875C7.84375 8.65625 8.0625 7.5 9.5625 7.5C11.0625 7.5 11.0938 8.875 11.0938 9.96875V14.5H13.9688Z" fill="#1B3764"/>
</svg>
