<svg width="76" height="14" viewBox="0 0 76 14" fill="none" xmlns="http://www.w3.org/2000/svg">
<circle cx="69.6663" cy="6.99996" r="5.83333" stroke="#FFCA42"/>
<path d="M69.6667 13.3333C68.835 13.3333 68.0114 13.1695 67.243 12.8512C66.4746 12.5329 65.7764 12.0664 65.1883 11.4783C64.6002 10.8902 64.1337 10.192 63.8154 9.42362C63.4971 8.65523 63.3333 7.83166 63.3333 6.99996C63.3333 6.16825 63.4971 5.34469 63.8154 4.5763C64.1337 3.8079 64.6002 3.10972 65.1883 2.52162C65.7764 1.93351 66.4746 1.467 67.243 1.14872C68.0114 0.830442 68.835 0.666626 69.6667 0.666626L69.6667 6.99996L69.6667 13.3333Z" fill="#FFCA42"/>
<circle cx="53.8333" cy="6.99996" r="6.33333" fill="#FFCA42"/>
<circle cx="38.0003" cy="6.99996" r="6.33333" fill="#FFCA42"/>
<circle cx="22.1663" cy="6.99996" r="6.33333" fill="#FFCA42"/>
<circle cx="6.33333" cy="6.99996" r="6.33333" fill="#FFCA42"/>
</svg>
